HIERARCHY
ROOT Hips
{
	OFFSET 0.000000 0.000000 0.000000
	CHANNELS 6 Xposition Yposition Zposition Xrotation Yrotation Zrotation
	JOINT LeftUpLeg_virtual
	{
		OFFSET 0.000000 0.000000 0.000000
		CHANNELS 3 Xrotation Yrotation Zrotation
		JOINT LeftUpLeg
		{
			OFFSET 10.205400 -3.823500 0.155100
			CHANNELS 3 Xrotation Yrotation Zrotation
			JOINT LeftLeg
			{
				OFFSET 0.708757 -12.982077 0.567790
				CHANNELS 3 Xrotation Yrotation Zrotation
				JOINT LeftFoot
				{
					OFFSET -0.708756 -10.717838 -2.184338
					CHANNELS 3 Xrotation Yrotation Zrotation
					JOINT LeftToeBase
					{
						OFFSET 0.108149 -7.191104 7.560241
						CHANNELS 3 Xrotation Yrotation Zrotation
						JOINT LeftToe_End
						{
							OFFSET 0.070230 0.081724 4.490308
							CHANNELS 3 Xrotation Yrotation Zrotation
							End Site
							{
								OFFSET 0 0 0
							}
						}
					}
				}
			}
		}
	}
	JOINT RightUpLeg_virtual
	{
		OFFSET 0.000000 0.000000 0.000000
		CHANNELS 3 Xrotation Yrotation Zrotation
		JOINT RightUpLeg
		{
			OFFSET -10.205400 -3.823500 0.005500
			CHANNELS 3 Xrotation Yrotation Zrotation
			JOINT RightLeg
			{
				OFFSET -0.708756 -12.982134 0.610632
				CHANNELS 3 Xrotation Yrotation Zrotation
				JOINT RightFoot
				{
					OFFSET 0.708754 -10.717769 -1.945823
					CHANNELS 3 Xrotation Yrotation Zrotation
					JOINT RightToeBase
					{
						OFFSET -0.108140 -7.191069 7.372968
						CHANNELS 3 Xrotation Yrotation Zrotation
						JOINT RightToe_End
						{
							OFFSET -0.070227 0.081735 4.479403
							CHANNELS 3 Xrotation Yrotation Zrotation
							End Site
							{
								OFFSET 0 0 0
							}
						}
					}
				}
			}
		}
	}
	JOINT Spine_virtual
	{
		OFFSET 0.000000 0.000000 0.000000
		CHANNELS 3 Xrotation Yrotation Zrotation
		JOINT Spine
		{
			OFFSET 0.000000 6.876099 0.125700
			CHANNELS 3 Xrotation Yrotation Zrotation
			JOINT Spine1
			{
				OFFSET 0.000000 5.730043 0.104720
				CHANNELS 3 Xrotation Yrotation Zrotation
				JOINT Spine1_split
				{
					OFFSET 0.000000 5.730043 0.104720
					CHANNELS 3 Xrotation Yrotation Zrotation
					JOINT Spine2
					{
						OFFSET 0.000000 5.730043 0.104720
						CHANNELS 3 Xrotation Yrotation Zrotation
						JOINT Neck_virtual
						{
							OFFSET 0.000000 0.000000 0.000000
							CHANNELS 3 Xrotation Yrotation Zrotation
							JOINT Neck
							{
								OFFSET 0.000000 10.314075 0.188496
								CHANNELS 3 Xrotation Yrotation Zrotation
								JOINT Head
								{
									OFFSET 0.000000 7.643700 -2.377400
									CHANNELS 3 Xrotation Yrotation Zrotation
									JOINT HeadTop_End
									{
										OFFSET 0.000000 43.788605 -13.619600
										CHANNELS 3 Xrotation Yrotation Zrotation
										End Site
										{
											OFFSET 0 0 0
										}
									}
								}
							}
						}
						JOINT LeftShoulder_virtual
						{
							OFFSET 0.000000 0.000000 0.000000
							CHANNELS 3 Xrotation Yrotation Zrotation
							JOINT LeftShoulder
							{
								OFFSET 2.196100 4.412489 0.087492
								CHANNELS 3 Xrotation Yrotation Zrotation
								JOINT LeftShoulder_split
								{
									OFFSET 2.196100 4.412489 0.087492
									CHANNELS 3 Xrotation Yrotation Zrotation
									JOINT LeftArm
									{
										OFFSET 8.771219 -2.981674 -0.026999
										CHANNELS 3 Xrotation Yrotation Zrotation
										JOINT LeftForeArm
										{
											OFFSET 8.512804 0.000000 -0.000000
											CHANNELS 3 Xrotation Yrotation Zrotation
											JOINT LeftHand
											{
												OFFSET 18.484802 0.000000 -0.000000
												CHANNELS 3 Xrotation Yrotation Zrotation
												End Site
												{
													OFFSET 0 0 0
												}
											}
										}
									}
								}
							}
						}
						JOINT RightShoulder_virtual
						{
							OFFSET 0.000000 0.000000 0.000000
							CHANNELS 3 Xrotation Yrotation Zrotation
							JOINT RightShoulder
							{
								OFFSET -2.196100 4.412496 0.070690
								CHANNELS 3 Xrotation Yrotation Zrotation
								JOINT RightShoulder_split
								{
									OFFSET -2.196100 4.412496 0.070690
									CHANNELS 3 Xrotation Yrotation Zrotation
									JOINT RightArm
									{
										OFFSET -8.771282 -2.981682 -0.094208
										CHANNELS 3 Xrotation Yrotation Zrotation
										JOINT RightForeArm
										{
											OFFSET -8.494598 0.000000 0.000000
											CHANNELS 3 Xrotation Yrotation Zrotation
											JOINT RightHand
											{
												OFFSET -18.483803 0.000000 0.000001
												CHANNELS 3 Xrotation Yrotation Zrotation
												End Site
												{
													OFFSET 0 0 0
												}
											}
										}
									}
								}
							}
						}
					}
				}
			}
		}
	}
}
MOTION
Frames: 4
Frame Time: 0.03333333
-0.677223 16.507563 0.840614 0.000000 0.000000 0.000000 4.613297 -15.833494 1.076883 -20.578201 1.115353 16.620340 112.531232 26.743056 9.305042 27.325630 5.771849 -12.514093 1.508173 8.408023 43.036725 0.000000 0.000000 0.000000 6.403371 -10.928890 0.669919 -10.474419 8.011079 -12.359835 97.539452 -3.650437 -7.560658 19.566115 7.184535 12.884349 -24.477347 -18.078956 -51.403024 0.000000 0.000000 0.000000 6.086295 -13.010638 -0.392289 2.908251 1.894346 0.102390 -0.176918 0.251876 0.231556 0.135310 -0.553000 0.533687 0.000000 0.000000 0.000000 -0.747626 0.294065 0.098891 -2.510516 2.968847 -1.116290 -0.015091 -1.759420 -0.448479 0.000000 0.000000 0.000000 -0.715606 0.282107 -0.181935 0.198670 -4.777514 -20.800989 0.107623 3.052413 -2.234593 16.670712 -21.710381 -48.999852 1.568032 -26.820053 0.543392 0.000000 0.000000 0.000000 -0.471443 0.614627 0.353704 -0.035286 9.700514 21.287488 -3.060360 -5.392864 -2.988898 3.532548 3.098620 61.943512 2.615490 21.685775 -0.236652 0.000000 0.000000 0.000000 
-0.618324 16.485840 0.832119 0.000000 0.000000 0.000000 4.608342 -15.905511 0.984722 -20.549205 0.875359 16.648250 112.596953 26.788574 9.291573 27.278611 5.762144 -12.783821 1.493301 8.408678 43.000002 0.000000 0.000000 0.000000 6.491283 -11.061623 0.606028 -10.679656 7.708911 -12.254421 97.309227 -3.675568 -7.614011 19.747510 7.108670 12.893634 -24.541373 -18.082646 -51.348973 0.000000 0.000000 0.000000 6.225286 -12.885750 -0.577403 2.962540 1.952831 0.166367 -0.227659 0.269966 0.203326 0.244889 -0.747906 0.551387 0.000000 0.000000 0.000000 -0.790461 0.289444 0.100629 -2.278597 3.141714 -1.312185 0.589749 -1.397867 -0.334062 0.000000 0.000000 0.000000 -0.796414 0.301007 -0.243499 0.181861 -4.759057 -20.879747 0.093977 3.167385 -2.161149 17.012543 -21.073341 -49.113008 1.827702 -27.269679 0.627128 0.000000 0.000000 0.000000 -0.471102 0.648450 0.356085 -0.008999 9.418233 21.253390 -3.000361 -5.484917 -3.081907 3.409384 2.988274 61.773768 2.580982 21.894434 -0.226600 0.000000 0.000000 0.000000 
-0.570542 16.458809 0.823479 0.000000 0.000000 0.000000 4.597952 -16.042962 0.810127 -20.532454 0.572630 16.834924 112.703667 26.736009 9.272393 27.149056 5.778340 -13.019169 1.582770 8.456712 42.980857 0.000000 0.000000 0.000000 6.563496 -11.249321 0.445801 -10.830143 7.502909 -12.017286 97.088714 -3.677121 -7.787486 19.886538 7.045062 12.956065 -24.628769 -18.043179 -51.293426 0.000000 0.000000 0.000000 6.223130 -13.008976 -0.852329 2.969795 2.010132 0.216777 -0.292219 0.291386 0.221628 0.292708 -0.925771 0.610384 0.000000 0.000000 0.000000 -0.828547 0.273013 0.136470 -1.886367 3.238447 -1.216106 2.439073 -0.958223 -0.473856 0.000000 0.000000 0.000000 -0.848443 0.278201 -0.265922 0.197319 -4.537716 -20.864671 0.084986 3.232796 -2.011369 17.269886 -19.684918 -49.636662 1.995795 -29.088444 0.709396 0.000000 0.000000 0.000000 -0.475632 0.646561 0.394434 -0.000056 8.962149 21.373170 -2.885984 -5.368104 -3.070318 3.159159 2.601827 61.392397 2.468074 21.919482 -0.212252 0.000000 0.000000 0.000000 
-0.540190 16.431835 0.821653 0.000000 0.000000 0.000000 4.573898 -16.202419 0.573974 -20.532426 0.222361 17.168032 112.804112 26.589626 9.252375 27.017901 5.837774 -13.186389 1.733992 8.534345 42.986489 0.000000 0.000000 0.000000 6.593215 -11.491545 0.208489 -10.957515 7.412413 -11.645874 96.945615 -3.677008 -8.063756 19.955118 6.968822 13.075061 -24.748277 -17.960409 -51.241520 0.000000 0.000000 0.000000 6.090490 -13.350111 -1.185872 2.912503 2.068703 0.258968 -0.373015 0.311439 0.277625 0.301368 -1.056132 0.706178 0.000000 0.000000 0.000000 -0.883856 0.251859 0.206276 -1.381336 3.273600 -0.907688 5.321073 -0.531246 -0.828540 0.000000 0.000000 0.000000 -0.864706 0.225717 -0.250036 0.242022 -4.182860 -20.765708 0.114376 3.246227 -1.809426 17.545054 -17.602178 -50.458036 2.082113 -31.837356 0.834799 0.000000 0.000000 0.000000 -0.485739 0.611233 0.464505 -0.005511 8.387740 21.586936 -2.721564 -5.031578 -2.998594 2.849140 1.984165 60.830874 2.294750 21.738240 -0.185360 0.000000 0.000000 0.000000 
